<?xml version="1.0" standalone="yes"?>
<svg xmlns="http://www.w3.org/2000/svg" width="695" height="712">
<path style="fill:#d1d7d7; stroke:none;" d="M0 0L0 712L199 712C190.23 703.623 196.012 693.285 193 683C196.277 680.136 194.297 675.9 194.343 672C194.402 667.055 196.124 661.935 196.715 657C197.234 652.662 196.885 648.347 198.09 644.089C200.284 636.339 204.939 630.627 208.447 623.572C209.486 621.481 209.515 619.144 210.468 617.039C211.494 614.77 213.47 613.123 214.451 610.83C217.096 604.648 219.777 593.464 218 587C223.881 582.816 223.136 568.596 221.701 562.089C221.269 560.128 219.57 558.19 219.883 556.12C220.144 554.389 221.773 553.092 222.604 551.629C225.126 547.191 227.874 541.962 229 537C225.27 534.696 219.846 529.482 225 526C223.895 521.19 225.043 516.854 224.981 512C224.902 505.659 224 499.386 224 493L233 495C231.43 490.615 225.553 488.301 228 483C226.67 480.403 225.564 479.409 223 478C224.238 472.799 223.239 469.133 222.625 464C222.308 461.35 223.107 458.717 222.417 456.09C221.499 452.587 219.101 449.522 218 446C222.747 444.978 219.382 438.842 219.444 435C219.645 422.616 214.209 412.162 213.139 400C212.579 393.63 218.653 387.027 221 396C215.826 399.485 222.597 403.182 226 399L231 400C230.342 397.866 230.048 396.228 230 394C228.089 390.783 226.205 384.341 228 381C226.595 375.587 227.635 372.858 230 368C227.876 367.101 227.899 367.124 227 365C229.68 366.193 232.14 367.35 235 368C233.74 366.049 232.981 365.16 231 364C232.684 363.776 233.313 363.782 235 364L235 359C230.697 359 234.374 349.491 236 348L236 346C229.377 338.385 235.68 326.748 238.275 318.576C239.061 316.101 238.941 313.509 239.553 311C240.207 308.321 241.677 305.929 241.061 303.09C240.157 298.923 236.167 296.168 235.357 292C234.12 285.635 238.44 279.857 235.852 273.174C234.169 268.829 229.13 267.236 227.274 262.985C225.964 259.985 226.288 256.194 225.77 253C224.285 243.837 224.588 234.295 223.946 225C223.662 220.881 221.426 217.182 221.843 213C223.079 200.616 232.592 191.071 238.312 180.576C240.813 175.987 242.061 167.234 242.791 162C244.017 153.208 243.951 143.571 246.644 135.015C248.825 128.087 253.512 121.884 255.776 114.985C258.64 106.262 261.185 93.7383 270 89C271.905 80.9147 279.726 75.4538 280 67C283.665 65.6711 285.302 61.9161 287.87 59.054C291.804 54.6704 298.881 49.518 305.039 49.1729C316.92 48.5069 322.684 66.048 325.152 75C330.028 92.6901 338.737 108.786 341.805 127C343.036 134.309 344.824 140.339 347.247 147.286C348.261 150.193 347.61 152.912 350 155C348.388 160.457 349.847 165.448 349.985 171C350.358 185.957 352.617 201.023 351.961 216C351.707 221.783 347.516 232.685 351.603 237.582C355.936 242.772 365.016 242.186 371 243.326C375.701 244.221 380.309 246.189 385 247.298C387.853 247.972 390.225 249.764 393 250.66C396.929 251.93 400.952 251.785 405 252.17C407.45 252.402 410.168 253.27 412.517 252.127C416.008 250.429 415.583 246.304 417.494 243.455C423.086 235.119 425.822 225.93 432.594 217.997C441.011 208.137 449.189 198.273 457.946 188.791C459.944 186.628 460.717 183.621 462.724 181.534C464.672 179.508 467.572 178.566 469.7 176.697C476.851 170.414 483.642 164.301 491.124 158.546C499.608 152.019 505.849 146.28 515.701 141.816C520.359 139.706 523.236 135.84 527.129 132.769C535.849 125.891 547.789 121.463 557.057 130.094C562.406 135.075 560.151 144.664 559.4 151C558.893 155.275 560.143 159.667 559.961 164C559.707 170.014 558.51 175.997 558.089 182C557.446 191.186 555.225 199.952 553.525 209C552.443 214.754 552.436 220.28 550.357 225.91C545.022 240.352 537.223 254.236 532.8 269C531.534 273.226 532.262 277.673 531.829 282C530.718 293.116 527.541 303.742 519.946 312.039C516.758 315.522 512.73 319.046 510.274 323.09C507.033 328.425 505.876 336.042 499.871 339.276C494.68 342.072 487.686 341 482 341C480.346 345.404 477.905 349.174 477.519 354C477.065 359.676 479.095 365.34 478.675 371C478.104 378.698 475.003 385.347 475 393C474.997 399.016 471.347 407.565 478 410C477.125 414.628 471.526 428.827 477 430C474.841 436.196 474.123 443.649 476 450C474.04 450.48 472.693 450.938 471 452C472.248 452.685 472.548 452.749 474 453C473.798 454.85 473.798 456.15 474 458L472 457C472 458.797 472.014 458.521 473 460L469 461L469 463L475 464C475.68 468.127 478.509 469.841 481 473L475 471L478 477L475 478L475 480C476.457 481.103 476.897 481.543 478 483L473 481C471.238 490.677 478.765 498.98 481.829 508C484.679 516.385 485.702 526.387 490.559 533.985C495.474 541.675 501.963 548.236 507.66 555.3C513.39 562.406 518.645 569.931 524.379 576.996C527.781 581.188 533.312 583.468 536 588C541.404 588.961 543.101 594.229 547.015 597.527C555.623 604.781 564.039 611.943 572.428 619.536C595.501 640.42 620.31 659.528 642.487 681.455C649.255 688.148 654.724 695.96 661.076 703C663.45 705.632 665.916 709.269 669.089 710.972C675.459 714.391 687.871 712 695 712L695 0L0 0z"/>
<path style="fill:#9a8988; stroke:none;" d="M280 67C279.386 75.295 271.132 80.7033 270 89C265.16 90.5783 263.675 94.7844 261.42 99.0139C256.9 107.491 253.973 116.999 250.466 125.964C249.258 129.053 247.197 131.787 246.379 135.015C242.801 149.119 242.913 163.887 238.981 177.914C236.536 186.634 227.89 193.651 224.47 202.015C222.831 206.022 221.02 211.65 221.569 216C222.003 219.441 223.704 222.495 223.946 226C224.497 233.984 223.343 243.354 225 251C228.068 245.88 227.951 239.477 226 234C234.299 226.937 223.178 220.643 224.33 212.999C225.119 207.771 228.606 204.51 230.863 199.985C233.029 195.642 233.904 190.725 236.129 186.424C238.623 181.603 241.69 178.671 242 173L246 173C245.38 167.194 244.573 158.731 245.644 153.039C246.181 150.181 248.083 147.828 248.661 144.961C249.671 139.951 249.714 135.142 251.634 130.286C253.479 125.619 254.371 120.49 259 118C261.964 103.61 269.079 91.7027 277.694 79.9189C280.604 75.9393 281.444 71.2973 286 69C289.06 58.4623 301.107 49.8672 312 51C304.094 45.5989 292.47 52.8993 287.018 59.054C284.566 61.8222 283.173 65.0881 280 67z"/>
<path style="fill:#362f2d; stroke:none;" d="M286 69C281.094 70.4891 279.963 75.9244 277.085 79.9189C268.769 91.4592 260.757 103.593 259 118C253.944 119.637 253.025 125.671 251.285 130.286C249.578 134.815 249.581 139.332 248.661 143.985C248.088 146.889 246.252 149.247 245.569 152.089C244.777 155.383 245.881 158.688 245.946 162C246.021 165.806 245.262 169.216 246 173L242 173C241.43 178.123 238.419 181.147 236.129 185.576C233.922 189.842 232.987 194.682 230.863 198.996C228.634 203.522 225.192 206.834 224.326 212.001C222.845 220.833 232.578 225.592 226 234C228.426 243.946 225.803 253.114 230 263L228 263C231.902 270.987 242.382 272.925 246 281C248.709 280.352 251.216 280.058 254 280L254 277C258.64 276.538 264.4 275.837 266 271C269.384 272.04 272.478 272.696 276 273C276.674 270.703 276.965 270.226 279 269L278 265L286 262L284 258C287.206 257.56 289.059 257.216 290 254L298 257C300.688 254.16 303.078 253.02 307 253C307 251.203 306.986 251.479 306 250C307.952 249.93 307.94 249.646 309 251C310.314 250.232 310.232 250.314 311 249L313 249C314.402 251.274 315.515 251.987 318 253C317.316 254.58 317.195 254.777 316 256C316.598 257.195 316.466 256.977 318 258C316.319 259.306 314.952 260.182 313 261L315 265L311 264C311.993 268.953 311.571 271.296 306 271C306.899 273.124 306.876 273.101 309 274C308.455 275.635 308.635 275.455 307 276L308 279C304.624 279.372 302.1 280.74 299 282L301 286C298.374 286.839 297.839 287.373 297 290L303 292C302.209 294.232 301.923 295.646 302 298C299.052 298.968 298.184 300.141 297 303C299.28 304.489 300.511 305.72 302 308L298 308C298.84 309.916 298.985 310.223 298 312L299 315C294.967 317.22 293.657 319.392 294 324C289.384 324.801 286.473 324.061 282 323C279.963 326.143 277.578 325.352 274.429 326.856C272.042 327.996 270.538 329.955 269 332C266.267 330.105 258.52 329.804 256.023 332.641C254.026 334.91 254.787 337.196 252 339L255 345C253.814 343.814 253.416 343.472 252 343C252.268 346.357 252.348 349.769 255 352C254.866 354.904 255.609 356.404 257 359L255 359C256.674 362.826 260.785 366.775 260 371C263.631 373.45 266.529 375.664 271 376L271 378L266 378L267 382C263.976 382.19 261.077 381.678 259 384C262.881 384 258.624 389.724 257 391C258.707 395.889 263.041 398.792 264 404C265.43 405.71 266.284 407.612 268 409C267.014 410.479 267 410.203 267 412L273 413L274 423C268 425.795 266.069 430.71 265 437C261.905 435.993 260.113 436.06 257 437C258.139 438.015 258.612 438.309 260 439L259 444L255 444C255.98 445.783 255.908 445.594 258 446C257.455 447.635 257.635 447.455 256 448L259 450C257.365 450.545 257.545 450.365 257 452C259.055 454.127 260.502 456.44 262 459L264 459C264.472 457.584 264.814 457.186 266 456L264 451C268.099 449.801 269.173 443.921 270 440L278 439C277.02 437.217 277.092 437.406 275 437C277.43 435.818 279.313 435.27 282 435C281.792 433.339 281.505 433.46 283 433C283 431.203 282.986 431.479 282 430C285.167 428.885 287.14 427.811 289 425C292.617 425.774 295.463 424.992 299 424C298.59 421.225 297.851 418.673 297 416L302 415L301 411C304.745 410.207 306.74 407.735 310 406C309.232 404.686 309.314 404.768 308 404C311.35 403.01 314.514 403.002 318 403L312 405C316.042 406.631 318.051 407.424 319 412L313 411L315 416C316.797 416 316.521 415.986 318 415C318.482 417.364 318.636 417.518 321 418C319.814 419.186 319.472 419.584 319 421C320.797 421 320.522 420.986 322 420C320.108 422.75 318.205 422.307 315 422C315.902 423.923 316.076 423.999 318 425C316.512 428.203 315.507 430.484 316 434L305 440C305.768 441.314 305.686 441.232 307 442C306.014 443.479 306 443.203 306 445L308 445L308 447C306.076 448.001 305.902 448.077 305 450L307 449C304.228 452.622 301.732 455.189 297 455C297.176 456.878 297.438 458.199 298 460C295.908 460.406 295.98 460.217 295 462L285 461C285 462.797 285.014 462.521 286 464L282 464C281.818 469.427 279.889 477.21 276 481C276 482.797 276.014 482.521 277 484C273.315 484.979 269.756 486.439 266 487C265.014 491.239 264.152 495.188 262 499C265.065 504.354 267.798 514.573 263 519C265.573 521.232 267.233 522.573 266 526C269.028 527.859 271.623 529.325 274 532L271 533C272.623 540.508 287.016 545.281 294 546C292.694 548.625 292.471 550.113 293 553L291 553L291 558C292.797 558 292.522 557.986 294 557C294.783 560.143 295.986 562.702 296 566C302.177 564.995 307.836 549.062 312.852 560.019C313.418 561.256 313.623 562.669 313.855 563.995C314.21 566.023 314.517 567.995 315 570L312 570L312 572C315.541 572.955 318.434 572.836 322 572L322 569C320.207 567.417 319.22 566.078 318 564C320.504 564.269 322.53 564.422 325 564L324 571C326.863 570.438 329.123 570.524 332 571L332 567L334 567C333.954 571.172 332.398 574.891 332.182 578.961C332.061 581.238 333.325 583.621 332.307 585.799C330.819 588.983 327.019 590.821 324.593 593.201C312.566 605.001 295.933 606.867 281.424 597.876C276.385 594.752 273.114 590.241 268.907 586.245C266.965 584.4 264.315 583.841 262.316 582.123C258.734 579.043 256.411 571.532 256 567C253.066 567.808 251.32 569.073 249 571L251 578C249.521 577.014 249.797 577 248 577C249.822 583.539 248.51 588.413 248.288 595C248.169 598.518 250.023 601.563 250.273 605C250.513 608.293 249.17 611.681 249 615C253.315 614.195 257.21 614.453 259 610L266 613L265 616L266 617L269 616C270.314 617.618 270.877 617.693 273 618C271.466 619.023 271.598 618.805 271 620L272 622C281.346 619.091 287.068 623.42 291.41 632.089C292.804 634.872 292.646 637.956 295 640C293.46 642.844 291.038 644.964 290 648L293 647C293.642 649.989 294.468 652.354 296 655C290.906 656.078 289.126 658.905 290 664C286.521 663.648 285.074 662.913 283 666C282.014 664.521 282 664.797 282 663C278.153 670.082 281.678 681.534 274 686C274.22 694.721 275.928 703.307 276 712L293 712C292.549 706.282 292 700.759 292 695C300.867 698.55 294.577 704.778 299.028 710.397C302.011 714.163 314.571 712 319 712C317.311 704.381 316.006 695.799 316 688C313.475 687.317 311.382 686.071 309 685C312.211 681.479 313.578 677.496 315 673C312.027 668.922 313.793 661.925 314.036 657C314.728 642.985 316.961 629.059 317 615L322 616L323 615L322 611L328 610L324 604C326.653 605.243 329.158 606.288 332 607L333 606C333 604.203 332.986 604.479 332 603C334.417 604.452 334.846 605.275 334 608L339 610L339 607L341 607L340 612C343.889 615.412 346.027 626.049 341 629C337.416 645.079 340 661.489 340 678L333 678L332 712L669 712C650.21 683.598 620.268 662.394 595.325 639.742C588.98 633.979 581.949 629.02 575.665 623.309C570.647 618.749 566.649 613.141 560 611L561 613L553 607L554 611C552.657 609.096 552.181 608.282 552 606C548.977 604.257 546.325 602.026 543 601C543.957 599.483 544.387 598.661 545 597C530.553 584.698 519.316 569.686 507.34 555.039C501.46 547.849 494.449 540.811 489.475 532.985C486.638 528.522 484.889 523.79 482.451 519.209C480.009 514.619 476.488 514.944 478 509C476.522 508.014 476.797 508 475 508C475.59 505.648 475.805 503.424 476 501C471.561 501 469.169 493.702 468 490C469.457 491.103 469.897 491.543 471 493C472.096 489.572 468.901 486.638 466 485C466.817 481.538 466.15 477.241 469 475C467.608 472.398 466.785 470.983 464 470C463.649 461.822 462.811 446.008 471 441C470.424 436.414 470.337 433.35 472 429L468 429C468.894 423.243 472.233 417.662 472.633 411.845C472.806 409.321 471.132 407.293 471.103 404.83C470.962 392.944 474.794 381.385 476.737 369.83C477.831 363.325 473.534 356.379 476.268 350.09C477.84 346.473 481.038 341.373 485.04 340.318C488.858 339.312 493.758 341.232 497.126 338.686C500.68 335.999 502.907 331.136 505.834 327.831C511.989 320.882 519.79 313.799 524.731 305.91C532.001 294.306 528.914 279.571 533.075 267C538.592 250.331 546.769 234.627 551.556 217.715C556.762 199.319 557 178.938 557 160C557 151.444 558.432 141.406 556.517 133.039C555.109 126.888 549.584 125.333 544 126.761C535.088 129.04 527.332 136.334 519.572 141.106C508.375 147.991 498.782 156.334 488.826 164.761C485.304 167.742 480.994 169.508 477.439 172.439C468.631 179.703 461.2 188.299 453.63 196.829C448.771 202.304 444.071 208.004 439.715 213.88C437.564 216.783 435.594 218.326 435 222C430.654 223.475 429.862 227.191 427.613 230.871C422.466 239.295 418.864 254.614 407 255L411 259L407 258C407 259.797 407.014 259.521 408 261C401.732 261.395 394.331 258.505 390 254L394 254C388.797 246.164 377.52 253.845 370.17 251.581C361.862 249.022 357.762 240.274 349 238C349.012 233.732 350.134 229.303 349.832 225.09C349.655 222.629 348.491 220.468 348.554 217.961C348.636 214.658 349.789 211.353 349.492 208.039C349.035 202.963 347.136 198.276 347.015 193C346.682 178.493 348.096 163.358 345.741 149C344.797 143.246 342.594 137.663 341.235 132C337.934 118.242 334.783 104.279 329.794 91C326.271 81.623 323.476 71.8549 319.091 62.8303C317.494 59.5428 316.459 55.8536 313.775 53.2292C304.501 44.1589 287.519 59.5373 286 69z"/>
<path style="fill:#9a8988; stroke:none;" d="M313 52L314 53L313 52M314 53L315 54L314 53M315 54L316 55L315 54M316 55C316.894 58.7705 317.801 62.6465 321 65C320.293 60.9121 319.08 57.8157 316 55M321 65C321.563 68.812 322.81 72.3427 324 76C325.435 71.9889 323.836 67.9896 321 65M325 76C325.235 81.1367 326.831 85.3794 329 90C330.025 85.826 327.264 79.6024 325 76M330 91L330 94C330.696 92.4463 330.696 92.5537 330 91M331 94C333.997 108.48 339.175 122.432 342 137C344.569 130.417 340.399 122.393 338.761 116C337.632 111.596 337.266 107.367 335.816 103C334.635 99.4421 334.157 96.2452 331 94M520 140C531.13 137.751 538.026 127.046 550 126C539.321 121.529 525.307 131.085 520 140M552 126L553 127L552 126M553 127L554 128L553 127M554.667 128.333C554.222 128.778 555.278 128.722 555.333 128.667C555.778 128.222 554.722 128.278 554.667 128.333M556 130C558.081 146.468 557.881 164.4 556.957 181C556.598 187.438 555 193.419 555 200C557.561 194.308 557.587 188.102 558.17 182C559.11 172.162 559.304 162.818 559.495 153C559.652 144.903 560.969 138.177 559 130L556 130M343 137L343 140C343.696 138.446 343.696 138.554 343 137M392 251L394 254L390 254C393.393 258.97 402.136 262.023 408 261L407 258L411 259C409.774 256.965 409.297 256.674 407 256C409.46 255.242 412.456 255.034 414.532 253.397C424.41 245.61 423.793 228.317 435 222C436.995 215.171 444.35 208.841 448.845 203.35C463.461 185.495 479.917 171.167 497.87 157.036C504.603 151.736 515.317 147.177 520 140C507.315 143.101 500.447 151.19 490.402 158.546C481.124 165.34 471.156 172.931 462.724 180.89C460.666 182.833 459.824 185.87 457.946 188.026C449.52 197.699 440.975 207.339 432.594 217.133C425.676 225.218 422.165 234.523 416.979 243.455C415.201 246.518 415.577 250.496 411.695 252.052C406.37 254.188 397.636 251.242 392 251M344 141C344.528 149.297 346.335 157.596 346.91 166C347.683 177.284 346.381 188.671 347.205 199.961C347.436 203.125 349.075 205.872 349.235 209.015C349.406 212.349 348.239 215.6 348.299 218.91C348.36 222.318 349.898 225.503 350 229C352.398 223.338 352 216.083 352 210C351.999 196.662 350.317 183.332 349.985 170C349.855 164.749 348.762 160.216 350 155C346.885 150.889 347.472 145.357 344 141M323 189C321.122 191.613 319.266 194.031 318 197C325.027 199.001 326.129 195.193 325 189L323 189M315 200C313.331 204.096 312.105 207.54 312 212C314.511 212.359 316.498 212.402 319 212C319.082 207.96 320.07 203.932 321 200L315 200M554 200L554 206C554.951 203.715 554.951 202.285 554 200M553 206L553 209C553.696 207.446 553.696 207.554 553 206M552 212L552 219C553.518 216.332 553.622 214.61 552 212M550 219C548.997 226.275 544.896 232.684 544 240L546 240C547.486 232.765 551.05 226.349 552 219L550 219M349 229C349.003 232.306 348.399 235.727 351 238C350.282 234.993 350.195 231.82 349 229M352.667 239.333C352.222 239.778 353.278 239.722 353.333 239.667C353.778 239.222 352.722 239.278 352.667 239.333M354 240C355.248 240.685 355.548 240.749 357 241C355.752 240.315 355.452 240.251 354 240M357 241C360.559 245.691 364.923 251.036 371.09 252.198C376.462 253.211 384.581 251.006 390 250C386.959 246.894 383.926 247.499 380 246.197C372.327 243.651 364.975 242.503 357 241M542 242C538.948 249.642 535.606 256.834 534 265C537.773 261.024 538.706 255.088 540.491 250C541.519 247.067 542.963 245.033 542 242M306 250L307 253C302.997 252.313 300.057 253.421 298 257L290 254C288.421 256.605 286.943 257.219 284 258C284.613 259.661 285.043 260.483 286 262C283.193 262.668 280.649 263.843 278 265L279 269C276.303 269.578 276.211 270.261 276 273L266 271C263.611 275.348 258.674 276.208 254 277L254 280C251.15 280.021 248.729 280.19 246 281C244.63 276.016 240.661 273.714 236 272C236.234 274.971 237.003 278.016 236.776 281C236.494 284.722 234.683 288.194 235.163 292C235.739 296.575 240.165 299.488 240.671 304.039C241.425 310.834 237.489 319.622 235.38 326.001C233.529 331.597 230.465 341.787 236 346L236 348C233.555 349.835 230.828 358.364 235 359C234.798 360.85 234.798 362.15 235 364L231 363L235 368L227 365C227.482 367.364 227.636 367.518 230 368C226.793 372.581 226.044 375.657 228 381C225.405 383.483 227.524 391.699 230 394C229.685 396.627 229.876 397.6 231 400L226 399C222.699 401.553 217.407 400.352 221 396C219.028 386.545 212.896 393.488 213.154 399.985C213.64 412.219 219.596 422.678 219.239 435C219.129 438.822 221.296 443.522 218 446C218.823 449.757 220.954 452.534 222.086 456.09C222.926 458.726 222.08 461.324 222.348 464C222.865 469.17 223.983 472.703 223 478C225.012 479.584 226.46 480.967 228 483C224.373 486.598 229.211 491.176 233 492C232.316 493.58 232.195 493.777 231 495C233.11 497.378 234.887 498.372 238 499C237.02 497.217 237.092 497.406 235 497C236.411 494.28 237.504 492.194 235 490C236.155 485.759 234.028 483.159 233.969 479C233.893 473.567 238.009 468.787 232 465C232.323 462.968 232.34 462.018 232 460C234.042 460.895 235.828 461.536 238 462L237 457C239.693 458.216 241.142 459.697 243 462C241.44 462.596 240.377 463.089 239 464C242.692 467.068 252.056 474.506 246 479L250 489C245.944 486.968 242.537 486.05 238 486C240.597 492.589 241.999 497.864 242 505C237.061 503.983 234.42 500.092 230 498L229 502C239.793 507.626 244.865 518.951 248 530C242.398 524.147 238.475 518.276 230 517C228.94 509.02 221.963 501.299 229 494C227.199 493.438 225.878 493.176 224 493C224 499.673 225.073 506.39 224.946 513C224.857 517.614 223.67 521.458 225 526C218.007 527.499 225.071 535.735 229 537C227.33 541.657 224.982 546.457 222.604 550.806C221.653 552.545 219.704 554.07 219.457 556.12C219.165 558.542 221.203 560.74 221.701 563.039C223.263 570.24 223.159 581.457 218 587C222.349 609.362 200.122 626.245 197.29 647.004C196.232 654.761 194.705 663.221 194.213 671C193.93 675.473 195.898 679.155 193 683C194.238 688.387 193.558 694.455 193.742 700C193.841 702.987 193.043 705.646 194.877 708.291C199.615 715.121 213.622 713.38 213 704L216 704C214.626 700.376 214.197 698.541 216 695L214 691C215.843 689.547 216.259 688.265 217 686L219 689C219.519 686.663 219.48 685.36 219 683L222 684C221.149 679.456 220.424 675.646 221 671C219.604 671.661 219.186 671.964 218 673C216.459 671.519 213.555 671.207 212.886 668.838C211.533 664.05 216.582 661.263 214 656L218 656C218.692 647.646 218.236 638.412 217.82 630C217.577 625.081 217.48 618.896 222 616C221.185 609.55 219.078 602.156 224 597C224.864 600.487 227.091 603.442 227.736 607.001C228.782 612.774 228.388 619.118 229 625C230.314 624.232 230.232 624.314 231 623C231.265 625.388 231.143 627.594 231 630C236.759 632.789 239.321 639.087 246 640C242.439 645.058 243.535 651.322 245 657L243 657L244 661C240.361 661.61 243.402 666.26 243.486 668.94C243.55 670.959 242.412 673.041 242 675C245.527 677.171 246.532 680.288 251 681L251 683L247 683C249.122 685.149 249.65 686.05 249 689C250.584 691.902 250.68 693.776 250 697L254 697L252 712L276 712C275.977 703.621 275.24 694.236 274 686C281.282 683.45 280.451 669.508 281 663L283 666C283.685 664.752 283.749 664.451 284 663L290 664C289.747 659.147 291.418 656.635 296 655L293 647C291.203 647 291.479 647.014 290 648C291.598 645.129 293.863 643.165 295 640C292.957 637.321 292.949 634.159 291.41 631.17C287.165 622.923 280.996 618.189 272 622C272 620.147 272.3 620.65 271 620L273 619L269 616C267.203 616 267.479 616.014 266 617L265 616C265.986 614.521 266 614.797 266 613C263.63 611.544 261.704 610.617 259 610C256.563 613.973 253.281 613.965 249 615C249.33 611.687 250.815 608.329 250.57 605C250.317 601.564 248.367 598.507 248.556 595C248.922 588.182 250.847 583.585 248 577L251 578L249 571L256 567C256.216 571.643 258.181 578.721 261.599 582.123C263.688 584.201 266.777 584.755 268.907 586.903C272.779 590.808 275.802 594.913 280.576 597.876C295.664 607.24 312.744 605.082 325.371 593.201C327.676 591.032 330.86 589.382 332.512 586.596C334.047 584.009 332.236 581.682 332.388 578.961C332.615 574.909 333.986 571.172 334 567L332 567L332 571C328.998 570.304 326.969 570.181 324 571L325 564L318 564C319.037 566.513 319.683 567.617 322 569L322 572C318.097 572.652 314.673 573.272 312 570L315 570C314.627 568 314.305 566.005 313.996 563.995C313.794 562.676 313.666 561.28 313.197 560.019C308.698 547.926 301.484 564.378 296 566C296.479 562.4 295.323 560.28 294 557L291 558C291.202 556.15 291.202 554.85 291 553L293 553C292.824 550.371 293.171 548.494 294 546C286.903 544.72 273.613 540.176 271 533C272.797 533 272.521 532.986 274 532C272.003 528.7 269.453 527.589 266 526C268.171 522.445 266.206 520.995 263 519C268.591 515.575 265.539 503.694 262 499C264.719 495.593 265.474 491.285 266 487C269.969 487.256 273.337 485.526 277 484L276 481C280.38 478.174 282.152 469.026 282 464L286 464L285 461C286.635 461.545 286.455 461.365 287 463C289.803 462.242 292.099 461.814 295 462C296.223 460.805 296.42 460.684 298 460L297 455C301.855 455.916 304.826 453.216 307 449L305 450L308 447C307.232 445.686 307.314 445.768 306 445C306.078 442.917 305.842 441.919 305 440C309.07 438.908 312.405 436.168 316 434C316.036 430.73 316.996 428.094 318 425L315 422C318.317 422.627 321.156 423.936 322 420L319 421C320.186 419.814 320.528 419.416 321 418C318.876 417.101 318.899 417.124 318 415L315 416L313 411C315.106 411.644 316.795 411.906 319 412C318.464 407.307 316.836 405.372 312 406C314.166 404.805 315.553 404.309 318 404C314.837 402.673 311.414 403 308 403L310 406C306.627 407.103 304.406 409.792 301 411L302 415C300.122 415.176 298.801 415.438 297 416L299 424C295.557 424.701 292.514 425.364 289 425C286.847 427.225 284.761 428.599 282 430L283 433C281.463 433.69 281.662 433.328 282 435C279.558 435.11 277.377 435.428 275 436L278 439L270 440C268.551 444.022 267.757 448.703 264 451C264.511 452.952 264.733 453.457 266 455C265.043 456.517 264.613 457.339 264 459L262 459C261.11 455.925 258.461 449.298 256 449C257.035 447.814 257.339 447.396 258 446L255 446L255 444L259 444L260 439C258.521 438.014 258.797 438 257 438C260.027 436.428 261.697 436.205 265 437C266.673 430.745 268.544 426.676 274 423L273 413L267 412L268 409C266.57 407.29 265.716 405.388 264 404C264.197 398.606 259.372 395.578 257 391C258.988 389.724 262.586 384.636 259 384C261.472 382.373 264.073 382.5 267 382L266 378L271 378L271 376C266.918 375.379 264.03 372.66 260 372C262.334 367.444 257.468 362.851 255 359L257 359C256.168 356.626 255.383 354.479 255 352C252.868 349.291 252.441 346.401 252 343C253.186 344.186 253.584 344.528 255 345C254.251 342.646 253.398 341.05 252 339C256.342 338.07 253.498 334.828 256.333 332.417C258.861 330.267 266.4 330.386 269 332C270.855 330.208 272.84 327.747 275.222 326.639C278.402 325.16 281.127 327.075 282 323C286.666 324.808 289.12 325.466 294 324C293.927 319.525 295.551 317.729 299 315C299 313.203 298.986 313.479 298 312C300.006 310.873 300.006 310.127 298 309L302 308C300.765 305.242 299.758 304.235 297 303C298.48 300.588 299.524 299.339 302 298C302.049 295.85 302.438 294.081 303 292C300.958 291.105 299.172 290.464 297 290C298.154 287.751 298.751 287.154 301 286L299 282L308 279C307.804 276.777 308.365 275.976 309 274C307.543 272.897 307.103 272.457 306 271C311.753 271.95 312.425 268.991 311 264L315 265L313 261C315.204 260.605 319.291 258.828 316 257C317.297 255.405 317.535 254.982 318 253C315.954 251.794 314.59 250.752 313 249L311 249C310.455 250.635 310.635 250.455 309 251C307.938 249.4 308.116 249.719 306 250M390.667 250.333C390.222 250.778 391.278 250.722 391.333 250.667C391.778 250.222 390.722 250.278 390.667 250.333M226 252C226.024 256.363 225.904 260.776 227 265L230 263C228.846 259.302 228.331 255.057 226 252M381 262C380.25 266.473 381.748 267.852 386 269L387 265L383 265L384 262L381 262M228 265L229 266L228 265M533.333 265.667C533.278 265.722 533.222 266.778 533.667 266.333C533.722 266.278 533.778 265.222 533.333 265.667M229 266L230 267L229 266M230 267L231 268L230 267M232 268L233 269L232 268M532.333 268.667C532.278 268.722 532.222 269.778 532.667 269.333C532.722 269.278 532.778 268.222 532.333 268.667M233 269L234 270L233 269M234.667 270.333C234.222 270.778 235.278 270.722 235.333 270.667C235.778 270.222 234.722 270.278 234.667 270.333M531 272L530 290C532.388 285.032 533.152 277.129 531 272M311 289C313.037 294.621 319.24 299.627 325 301C322.214 295.59 316.489 291.472 311 289z"/>
<path style="fill:#d1d7d7; stroke:none;" d="M247 290C248.675 292.221 250.257 292.562 253 293C251.022 291.268 249.566 290.598 247 290z"/>
<path style="fill:#9a8988; stroke:none;" d="M529.333 292.667C529.278 292.722 529.222 293.778 529.667 293.333C529.722 293.278 529.778 292.222 529.333 292.667M516 294C516.805 298.315 516.547 302.21 521 304L520 301C526.849 299.532 520.046 294.272 516 294M528 295L528 299C528.71 297.24 528.71 296.76 528 295M527 299L527 302C527.696 300.446 527.696 300.554 527 299M525.333 304.667C525.278 304.722 525.222 305.778 525.667 305.333C525.722 305.278 525.778 304.222 525.333 304.667M524.333 306.667C524.278 306.722 524.222 307.778 524.667 307.333C524.722 307.278 524.778 306.222 524.333 306.667M521 309L521 311C522.635 310.455 522.455 310.635 523 309L521 309M520 311L521 312L520 311M519 312L520 313L519 312M517 313L517 315C518.635 314.455 518.455 314.635 519 313L517 313M516 315L517 316L516 315M515 316C514.043 317.517 513.613 318.339 513 320C514.63 318.485 515.163 318.145 515 316M482 340C494.448 345.223 505.511 338.082 509 326C502.859 327.734 501.43 335.273 496.432 338.686C492.748 341.202 486.253 340 482 340M272 334L272 336C274.232 336.363 275.768 336.363 278 336C279.734 338.003 281.355 337.923 284 338C282.131 332.4 276.97 332.821 272 334M481 341C480.105 343.042 479.464 344.828 479 347C480.777 344.95 481.64 343.66 481 341M270 343C270.674 345.297 270.965 345.774 273 347C271.466 348.023 271.598 347.805 271 349C272.768 350.348 273.983 351.122 276 352C276.57 347.078 280.936 347.961 285 348C280.79 343.394 275.876 343.365 270 343M477 347C473.735 354.74 477.706 361.13 476.701 368.91C476.221 372.631 474.431 376.325 473.594 380C472.226 386.005 472.699 392.485 472.047 398.576C471.819 400.702 470.666 402.69 470.652 404.834C470.636 407.325 472.467 409.31 472.321 411.845C471.984 417.707 468.529 423.121 468 429L472 429C469.826 433.178 470.158 436.462 471 441C467.483 442.029 467.506 444.509 466.347 447.741C463.54 455.569 463.453 461.857 464 470C466.298 471.336 467.412 472.832 469 475C465.202 475.831 466.674 481.435 466 485C468.588 487.364 470.543 489.813 472 493C470.519 491.402 469.939 490.892 468 490C469.127 494.507 470.942 500.177 476 501L475 508L478 509C476.011 514.907 479.17 514.793 481.995 519.209C484.058 522.433 485.104 526.592 487 530C488.602 524.789 485.498 520.649 483.849 515.911C482.165 511.074 481.688 506.101 479.635 501.285C476.632 494.241 472.096 488.884 473 481C474.745 481.89 476.125 482.453 478 483C477.101 480.876 477.124 480.899 475 480L475 478C476.797 478 476.522 477.986 478 477L475 471C477.042 471.894 478.828 472.536 481 473C479.209 469.602 476.127 467.77 475 464L469 463L469 461L473 460L472 457L474 458C473.688 454.853 473.745 453.778 471 452L476 450C474.395 443.255 475.59 436.664 477 430C472.288 426.916 477.337 415.242 478 410C472.434 406.828 474.999 400.692 475 395C475.001 386.62 478.222 379.4 478.816 371C479.399 362.745 476.954 355.327 479 347L477 347z"/>
<path style="fill:#362f2d; stroke:none;" d="M224 431C224.902 432.923 225.076 432.999 227 434C226.51 437.182 225.522 440.681 228 443C226.622 448.514 228.846 451.17 234 453C234.605 449.857 233.842 447.274 233.983 444.17C234.199 439.417 237.077 435.925 231 434L234 432C231.954 431.249 231.404 431.344 230 433L224 431M237 457C237.176 458.878 237.438 460.199 238 462L232 460L232 465C237.212 469.966 233.405 473.094 233.631 479C233.786 483.03 235.737 485.864 235 490C236.788 492.597 236.069 494.121 235 497L238 497L238 499C233.732 497.592 230.632 495.253 226 495C225.087 503.635 228.125 508.995 230 517C238.236 518.98 241.578 525.273 248 530C245.814 519.438 240.132 505.868 229 502L230 498C234.129 500.931 236.755 504.404 242 505C242 497.935 241.456 492.293 238 486C242.402 486.128 245.903 487.525 250 489C249.056 485.33 248.063 482.193 246 479C254.445 477.206 242.464 465.708 239 464L243 462C241.416 459.194 240.119 457.87 237 457z"/>
<path style="fill:#9a8988; stroke:none;" d="M276 516C280.29 517.478 283.203 520.078 286.999 522.42C289.766 524.127 292.198 524.206 294 527L302 526C300.168 520.791 295.432 522.873 291.093 521.298C286.921 519.783 284.225 515.596 282 512C285 510.303 286.757 507.069 290.094 505.855C293.428 504.642 296.645 505.897 300 505.356C303.738 504.753 306.901 501.984 310 500C307.713 497.062 305.531 495.224 302 494C303.034 490.32 303.833 486.827 304 483C302.025 481.922 300.161 479.821 297.871 479.484C294.955 479.055 291.607 480.404 289 481.549C286.015 482.861 282.341 484.29 280.147 486.799C273.848 494.004 276 507.238 276 516z"/>
<path style="fill:#d1d7d7; stroke:none;" d="M280 489L282 498C277.885 501.071 276.608 506.833 282 509C284.53 504.197 289.553 501.874 287 496L292 495C292.324 492.461 293.082 490.382 294 488C289.284 488.596 284.763 488.999 280 489z"/>
<path style="fill:#362f2d; stroke:none;" d="M249 498C249.008 501.169 249.1 503.959 250 507C253.784 504.236 252.646 500.418 249 498z"/>
<path style="fill:#9a8988; stroke:none;" d="M452 505L452 510C455.829 511.47 459.013 513.966 463 515C460.606 510.487 456.673 507.008 452 505z"/>
<path style="fill:#362f2d; stroke:none;" d="M243 509C244.993 511.815 247.797 512.832 251 514C250.474 516.115 249.901 518.019 249 520C251.306 521.723 253.317 522.978 256 524C253.309 529.316 256.692 531.324 259 536L266 534C263.057 527.464 258.137 522.085 254.974 515.576C254.126 513.831 254.043 510.257 252.362 509.153C250.364 507.84 245.432 509.153 243 509z"/>
<path style="fill:#9a8988; stroke:none;" d="M442 519C444.476 529.76 455.82 540.443 466 544C463.259 537.036 457.448 532.663 452.046 527.78C448.692 524.748 445.922 521.299 442 519z"/>
<path style="fill:#362f2d; stroke:none;" d="M237 527L233 526C233.464 528.372 233.536 529.668 233 532C234.105 535.984 233.426 539.92 234 544C231.965 545.226 231.674 545.703 231 548C238.204 553.638 244.414 563.932 254 565C253.313 562.825 252.949 561.969 254 560C253.695 555.532 254.533 552.191 256 548C253.556 544.794 253.615 540.614 251.66 537.04C248.841 531.887 242.725 527.318 238 524C237.315 525.248 237.251 525.549 237 527z"/>
<path style="fill:#d1d7d7; stroke:none;" d="M251 529C252.218 531.118 252.867 531.845 255 533C254.161 530.374 253.626 529.839 251 529z"/>
<path style="fill:#9a8988; stroke:none;" d="M488.333 530.667C488.278 530.722 488.222 531.778 488.667 531.333C488.722 531.278 488.778 530.222 488.333 530.667M489 532L490 533L489 532M490 534C490.936 535.949 491.392 536.55 493 538C492.064 536.051 491.608 535.45 490 534z"/>
<path style="fill:#d1d7d7; stroke:none;" d="M263 537C261.428 538.641 259.917 539.751 258 541C259.146 547.171 259.422 552.238 262 558C257.48 559.322 256.766 565.798 257.745 570C259.055 575.621 262.663 576.142 266.199 579.787C269.249 582.931 269.63 586.126 274 588C274.646 583.191 272.765 579.663 272.185 575C271.438 568.992 271.568 562.037 272.058 556.004C272.493 550.64 275.754 545.3 277 540L263 537z"/>
<path style="fill:#9a8988; stroke:none;" d="M495.333 539.667C495.278 539.722 495.222 540.778 495.667 540.333C495.722 540.278 495.778 539.222 495.333 539.667z"/>
<path style="fill:#362f2d; stroke:none;" d="M278 544C278.005 550.698 278.449 554.224 286 553C285.387 551.339 284.957 550.517 284 549C285.437 547.392 285.148 546.216 285 544L278 544z"/>
<path style="fill:#9a8988; stroke:none;" d="M498 544L499 545L498 544M447 545C448.453 547.971 450.014 549.562 453 551L452 555C453.797 555 453.522 554.986 455 554C456.219 558.856 460.063 562.416 461.365 567.089C462.223 570.17 461.396 573.889 461 577L463 577C462.01 582.334 465.198 586.554 465 592C467.403 591.832 468.46 591.803 470 590L474 591C473.759 587.642 473.759 584.358 474 581C470.481 576.832 469.746 571.887 467.7 567C464.011 558.191 456.306 548.272 447 545M499 545L500 546L499 545M502.333 549.667C502.278 549.722 502.222 550.778 502.667 550.333C502.722 550.278 502.778 549.222 502.333 549.667M504 551L505 552L504 551z"/>
<path style="fill:#362f2d; stroke:none;" d="M224 554C225.926 556.208 228.125 555.968 231 556C230.759 554.795 228.441 549.908 226 552C224.02 553.698 227.256 554.814 224 554z"/>
<path style="fill:#9a8988; stroke:none;" d="M505 552L506 553L505 552M507.333 554.667C507.278 554.722 507.222 555.778 507.667 555.333C507.722 555.278 507.778 554.222 507.333 554.667z"/>
<path style="fill:#d1d7d7; stroke:none;" d="M237 555C238.166 558.271 238.641 560.57 238 564L242 565C243.156 559.892 242.33 556.546 237 555z"/>
<path style="fill:#9a8988; stroke:none;" d="M464 555C466.295 559.221 470.472 562.431 475 564C473.518 560.896 472.104 559.482 469 558L470 555L464 555M508 556L509 557L508 556M509 557L510 558L509 557M510 559L511 560L510 559M511 560L512 561L511 560M512 561L513 562L512 561M513 562L514 563L513 562M514 564L515 565L514 564M515 565L516 566L515 565M516 566L517 567L516 566M517 567L518 568L517 567M518 568L519 569L518 568M519 569L520 570L519 569M521 572L522 573L521 572M530.667 583.333C530.222 583.778 531.278 583.722 531.333 583.667C531.778 583.222 530.722 583.278 530.667 583.333M532 584C532.854 586.525 533.508 587.03 536 588C535.264 585.438 534.481 585.017 532 584M264 587C265.335 591.845 269.201 595.637 274 597C271.781 592.746 268.254 589.219 264 587M537 587L536 591L545 597L543 601L552 606C552.027 608.58 552.229 609.138 554 611L553 607C555.552 609.48 557.776 611.504 561 613C560.792 611.339 560.505 611.46 562 611C558.559 604.169 552.415 601.668 547.015 596.74C543.416 593.456 541.233 589.593 537 587z"/>
<path style="fill:#362f2d; stroke:none;" d="M222 597C220.037 603.36 220.798 609.525 222 616C218.367 616.779 217.2 622.418 217.167 626C217.075 635.926 218.351 646.082 218 656L214 656C215.5 660.746 210.341 666.566 213.179 670.387C214.293 671.887 216.604 671.901 218 673L221 671C219.939 675.816 220.561 679.344 222 684C220.521 683.014 220.797 683 219 683C219.231 685.126 219.246 686.879 219 689L217 686C216.115 687.962 215.383 689.385 214 691C214.684 692.58 214.805 692.777 216 694C213.966 697.826 214.011 700.17 216 704L213 704C212.672 706.794 211.779 709.295 211 712L252 712C252.826 707.101 253.857 701.954 254 697L250 697C250.952 693.686 250.988 691.849 249 689C250.995 686.346 250.1 684.869 247 684L251 683L251 681C246.431 680.19 245.977 675.848 242 675C242.331 673.016 243.639 672.842 244 672C246.035 667.251 240.35 664.417 243 660L244 661L243 657L245 657C243.989 651.712 242.533 645.559 246 641C240.898 637.75 236.712 631.691 231 630L232 623L229 625C228.59 614.859 227.649 606.35 224 597L222 597z"/>
<path style="fill:#9a8988; stroke:none;" d="M540 597L540 599L542 599L542 597L540 597M332 603L333 606L332 607L324 604C325.084 606.419 326.242 607.988 328 610L322 611L323 615L320 616C321.968 617.974 323.196 619.322 324 622C320.669 620.217 319.047 618.651 318 615C315.169 621.685 316.284 629.883 315.961 637C315.63 644.286 314.398 651.659 313.914 659C313.631 663.303 311.42 669.859 315 673C313.154 677.234 311.604 681.157 309 685C311.4 686.519 313.19 687.563 316 688C316.001 693.203 317.479 697.931 317.717 703C317.846 705.755 317.053 709.042 319.657 710.972C322.572 713.133 328.558 712 332 712L333 678L340 678C340 664.761 338.131 651.14 339.054 638.015C339.273 634.898 340.592 632.081 341 629C346.613 627.117 344.462 614.485 340 612L341 607C339.217 607.98 339.406 607.908 339 610L334 608C335.878 605.223 335.191 603.885 332 603M562.667 611.333C562.222 611.778 563.278 611.722 563.333 611.667C563.778 611.222 562.722 611.278 562.667 611.333M564 612C565.223 613.195 565.42 613.316 567 614C565.777 612.805 565.58 612.684 564 612z"/>
<path style="fill:#d1d7d7; stroke:none;" d="M318 615C318.64 619.051 320.15 620.648 324 622C323.357 618.183 321.458 616.581 318 615z"/>
<path style="fill:#9a8988; stroke:none;" d="M567 615C568.624 617.044 569.643 617.896 572 619C570.376 616.956 569.357 616.104 567 615M283 616C285.096 618.518 286.943 619.815 290 621C288.277 617.887 286.444 616.826 283 616M573 620C573.899 622.124 573.876 622.101 576 623C574.897 621.543 574.457 621.103 573 620M576 623C577.733 625.914 579.817 626.893 583 628C580.913 625.243 579.334 623.932 576 623M584 629L585 630L584 629M585 630C585.545 631.635 585.365 631.455 587 632L587 630L585 630M591 635C592.001 636.924 592.078 637.099 594 638C592.999 636.076 592.922 635.901 591 635M594 639L595 640L594 639M598 642L599 643L598 642M599 643C599.545 644.635 599.365 644.455 601 645L601 643L599 643M591 645C592.157 648.901 594.059 650.196 598 651C596.417 647.913 594.159 646.361 591 645M603 646L604 647L603 646M604 647L605 648L604 647M605 648L606 649L605 648M607.667 650.333C607.222 650.778 608.278 650.722 608.333 650.667C608.778 650.222 607.722 650.278 607.667 650.333M609 651L610 652L609 651M610 652C612.789 655.96 616.04 659.211 620 662C617.866 657.424 614.576 654.134 610 652M620 662L621 663L620 662M355 663C356.723 666.113 358.556 667.174 362 668C361.072 663.747 359.172 663.139 355 663M621 663L622 664L621 663M622 664L623 665L622 664M624 665L625 666L624 665M625 666C626.103 667.457 626.543 667.896 628 669C627.101 666.876 627.124 666.899 625 666M629 669L630 670L629 669M630 670L631 671L630 670M632 672L633 673L632 672M633 673L634 674L633 673M634 674C634.545 675.635 634.365 675.455 636 676L636 674L634 674M637 677L638 678L637 677M638 678L639 679L638 678M639 679L640 680L639 679M640 680C641.549 682.136 642.864 683.451 645 685C643.816 682.141 642.948 680.968 640 680M284 681L285 685L286 681L284 681z"/>
<path style="fill:#d1d7d7; stroke:none;" d="M285 682C286.373 684.547 287.218 685.188 290 686C288.719 683.529 287.68 682.744 285 682z"/>
<path style="fill:#9a8988; stroke:none;" d="M288 683C288.584 684.742 288.584 685.258 288 687C289.478 687.986 289.203 688 291 688L291 683L288 683M645 685L646 686L645 685M646 686L647 687L646 686M647 687L648 688L647 687M298 688C300.878 692.125 306.332 691.961 311 692C307.249 689.205 302.608 688.376 298 688M285 689C286.373 691.547 287.218 692.188 290 693C288.598 690.726 287.485 690.013 285 689M653.333 692.667C653.278 692.722 653.222 693.778 653.667 693.333C653.722 693.278 653.778 692.222 653.333 692.667M292 695C292 700.773 292.277 706.279 293 712L299 712C297.417 705.349 300.22 697.02 292 695M659 701L660 702L659 701M665 707L666 708L665 707z"/>
</svg>
